# xmcd CD database file
#
# Track frame offsets:
#	150
#	29645
#	54277
#	85607
#	99075
#	118627
#	148202
#	165712
#	188595
#	220800
#	253065
#	278660
#
# Disc length: 3971 seconds
#
# Revision: 0
# Processed by: cddbd v1.4PL0 Copyright (c) Steve Scherf et al.
# Submitted via: CDex 1.40Release
#
DISCID=a00f810c
DTITLE=Dirty Dozen Brass Band The, - Medicated Magic (Japan)
DYEAR=2002
DGENRE=Blues
TTITLE0=Ain't Nothin' But A Party
TTITLE1=Walk on Gilded Splinters
TTITLE2=Cissy Strut
TTITLE3=Ruler of My Heart
TTITLE4=Everything I Do Gon' Be Funky
TTITLE5=We Got Robbed
TTITLE6=Junko Partner
TTITLE7=Tell It Like It Is
TTITLE8=Africa
TTITLE9=Big Chief
TTITLE10=Lou Mode
TTITLE11=Somethin' Goin' On
EXTD=YEAR: 2002 ID3G: 0
EXTT0=
EXTT1=
EXTT2=
EXTT3=
EXTT4=
EXTT5=
EXTT6=
EXTT7=
EXTT8=
EXTT9=
EXTT10=
EXTT11=
PLAYORDER=
